<svg width="512" height="512" viewBox="0 0 512 512" fill="none" xmlns="http://www.w3.org/2000/svg">
<rect width="512" height="512" fill="white"/>
<path fill-rule="evenodd" clip-rule="evenodd" d="M272.374 140.178C272.374 126.139 283.755 114.759 297.793 114.759C311.832 114.759 323.212 126.139 323.212 140.178V303.659V304.653V412.555C323.212 421.89 317.995 430.442 309.695 434.714L240.665 470.238C233.509 473.921 225.015 473.921 217.858 470.238L135.517 427.864C127.217 423.592 122 415.04 122 405.705V325.712C122 316.377 127.217 307.825 135.517 303.553L160.358 290.77L259.602 235.362C267.488 230.959 272.374 222.634 272.374 213.603V140.178Z" fill="url(#paint0_linear)"/>
<path fill-rule="evenodd" clip-rule="evenodd" d="M349.275 194.084C349.275 191.957 350.214 189.948 351.764 188.492C367.018 174.154 376.544 153.792 376.544 131.206C376.544 87.7936 341.351 52.6009 297.939 52.6009C254.527 52.6009 219.334 87.7936 219.334 131.206C219.334 153.566 228.67 173.746 243.657 188.059C245.183 189.516 246.104 191.509 246.104 193.618V193.618C246.104 199.504 239.593 202.849 235.277 198.848C217.106 182.007 205.733 157.935 205.733 131.206C205.733 80.282 247.015 39 297.939 39C348.863 39 390.145 80.282 390.145 131.206C390.145 158.197 378.548 182.48 360.064 199.342C355.738 203.289 349.275 199.939 349.275 194.084V194.084Z" fill="url(#paint1_linear)"/>
<path fill-rule="evenodd" clip-rule="evenodd" d="M331.938 166.161C331.938 164.323 332.7 162.58 333.942 161.225C341.893 152.556 346.746 140.999 346.746 128.308C346.746 101.404 324.936 79.5939 298.032 79.5939C271.128 79.5939 249.318 101.404 249.318 128.308C249.318 140.844 254.053 152.274 261.833 160.907C263.051 162.259 263.797 163.988 263.797 165.808V165.808C263.797 171.276 257.772 174.326 253.995 170.373C243.549 159.44 237.133 144.623 237.133 128.308C237.133 94.6745 264.398 67.4092 298.032 67.4092C331.665 67.4092 358.931 94.6745 358.931 128.308C358.931 144.813 352.365 159.784 341.702 170.753C337.914 174.65 331.938 171.596 331.938 166.161V166.161Z" fill="url(#paint2_linear)"/>
<defs>
<linearGradient id="paint0_linear" x1="82.1661" y1="293.88" x2="336.49" y2="293.88" gradientUnits="userSpaceOnUse">
<stop stop-color="#F2652B"/>
<stop offset="1" stop-color="#FCC355"/>
</linearGradient>
<linearGradient id="paint1_linear" x1="169.225" y1="120.027" x2="402.314" y2="120.027" gradientUnits="userSpaceOnUse">
<stop stop-color="#F2652B"/>
<stop offset="1" stop-color="#FCC355"/>
</linearGradient>
<linearGradient id="paint2_linear" x1="213.021" y1="119.959" x2="366.968" y2="119.959" gradientUnits="userSpaceOnUse">
<stop stop-color="#F2652B"/>
<stop offset="1" stop-color="#FCC355"/>
</linearGradient>
</defs>
</svg>
